<svg xmlns="http://www.w3.org/2000/svg" width="1024" height="1536" viewBox="0 0 1024 1536">
  <defs>
    <linearGradient id="paper2" x1="0" y1="0" x2="0" y2="1">
      <stop offset="0%" stop-color="#f0e2c8"/>
      <stop offset="100%" stop-color="#dcc39f"/>
    </linearGradient>
    <radialGradient id="sunAura" cx="50%" cy="45%" r="34%">
      <stop offset="0%" stop-color="#ffeab0" stop-opacity="0.95"/>
      <stop offset="100%" stop-color="#ffeab0" stop-opacity="0"/>
    </radialGradient>
  </defs>

  <rect width="1024" height="1536" fill="url(#paper2)"/>
  <rect x="58" y="58" width="908" height="1420" rx="42" fill="none" stroke="#1f6e69" stroke-width="15"/>
  <rect x="84" y="84" width="856" height="1368" rx="32" fill="none" stroke="#ab3c34" stroke-width="7"/>
  <rect x="100" y="100" width="824" height="1336" rx="26" fill="none" stroke="#cfa55c" stroke-width="4"/>

  <circle cx="512" cy="686" r="336" fill="url(#sunAura)"/>
  <circle cx="512" cy="686" r="178" fill="#cf5b3f" stroke="#cfa55c" stroke-width="6"/>
  <path d="M512 530 A156 156 0 0 1 512 842 A98 98 0 0 0 512 530" fill="#f3c96f" opacity="0.95"/>
  <path d="M512 530 A156 156 0 0 0 512 842 A98 98 0 0 1 512 530" fill="#b7493e" opacity="0.95"/>
  <circle cx="486" cy="658" r="34" fill="#f3c96f"/>
  <circle cx="544" cy="716" r="34" fill="#b7493e"/>

  <g stroke="#3e6f8f" stroke-width="2" opacity="0.48" fill="none">
    <path d="M120 1086 C260 1046, 390 1110, 520 1072 C670 1038, 800 1110, 910 1076"/>
    <path d="M120 1140 C260 1100, 390 1166, 520 1128 C670 1094, 800 1166, 910 1130"/>
    <path d="M120 1194 C260 1152, 390 1218, 520 1180 C670 1148, 800 1218, 910 1184"/>
  </g>

  <path d="M98 1100 C262 992, 344 1010, 468 1100 L98 1100 Z" fill="#57707e" opacity="0.88"/>
  <path d="M334 1100 C500 888, 640 928, 818 1100 L334 1100 Z" fill="#455d6b" opacity="0.9"/>
  <rect x="98" y="1100" width="828" height="286" fill="#46758d" opacity="0.7"/>
</svg>
