<svg xmlns="http://www.w3.org/2000/svg" width="1080" height="1350" viewBox="0 0 1080 1350">
  <defs>
    <linearGradient id="skyM" x1="0" y1="0" x2="0" y2="1">
      <stop offset="0%" stop-color="#d8e3df"/>
      <stop offset="100%" stop-color="#93a79e"/>
    </linearGradient>
    <linearGradient id="fog" x1="0" y1="0" x2="1" y2="0">
      <stop offset="0%" stop-color="#edf2ef" stop-opacity="0.8"/>
      <stop offset="100%" stop-color="#edf2ef" stop-opacity="0"/>
    </linearGradient>
    <linearGradient id="groundM" x1="0" y1="0" x2="0" y2="1">
      <stop offset="0%" stop-color="#5f786e"/>
      <stop offset="100%" stop-color="#2f453d"/>
    </linearGradient>
  </defs>

  <rect width="1080" height="1350" fill="url(#skyM)"/>

  <path d="M0 620 C150 480, 260 510, 360 430 C440 370, 560 470, 640 420 C720 372, 850 500, 930 470 C980 452, 1040 470, 1080 510 L1080 860 L0 860 Z" fill="#60786f" opacity="0.9"/>
  <path d="M0 690 C170 590, 300 650, 420 600 C520 560, 640 640, 760 600 C860 566, 970 630, 1080 610 L1080 940 L0 940 Z" fill="#4f655d" opacity="0.85"/>
  <path d="M0 760 C190 700, 340 760, 500 720 C640 688, 800 754, 1080 708 L1080 1350 L0 1350 Z" fill="url(#groundM)"/>

  <g opacity="0.65">
    <rect x="0" y="530" width="1080" height="110" fill="url(#fog)"/>
    <rect x="0" y="620" width="1080" height="90" fill="url(#fog)"/>
    <rect x="0" y="710" width="1080" height="80" fill="url(#fog)"/>
  </g>

  <g fill="#24423d" opacity="0.95">
    <path d="M536 772 L608 994 L462 994 Z"/>
    <ellipse cx="536" cy="730" rx="44" ry="46"/>
    <path d="M456 992 L618 992 L674 1260 L402 1260 Z"/>
  </g>

  <path d="M492 832 L614 852 L606 892 L486 868 Z" fill="#a8453d" opacity="0.9"/>
  <path d="M538 852 L674 952 L638 1002 L520 888 Z" fill="#bea66e" opacity="0.85"/>

  <g stroke="#dde8e3" stroke-width="3" opacity="0.35" fill="none">
    <path d="M210 860 C380 770, 620 774, 850 848"/>
    <path d="M220 904 C390 814, 630 818, 860 892"/>
    <path d="M232 948 C402 858, 642 862, 872 936"/>
  </g>
</svg>
