<svg xmlns="http://www.w3.org/2000/svg" width="480" height="720" viewBox="0 0 480 720">
  <defs>
    <linearGradient id="bg" x1="0" y1="0" x2="1" y2="1">
      <stop offset="0%" stop-color="#1b0f2a"/>
      <stop offset="100%" stop-color="#5e2ea6"/>
    </linearGradient>
    <radialGradient id="halo" cx="50%" cy="45%" r="45%">
      <stop offset="0%" stop-color="#ffd36a" stop-opacity="0.9"/>
      <stop offset="70%" stop-color="#ffd36a" stop-opacity="0"/>
    </radialGradient>
    <pattern id="dot" width="24" height="24" patternUnits="userSpaceOnUse">
      <circle cx="2" cy="2" r="1.5" fill="#ffffff" opacity="0.15"/>
    </pattern>
  </defs>
  <rect width="480" height="720" rx="28" fill="url(#bg)"/>
  <rect width="480" height="720" rx="28" fill="url(#dot)"/>
  <circle cx="240" cy="330" r="180" fill="url(#halo)"/>
  <g transform="translate(240 330)">
    <g fill="#ffd36a">
      <polygon points="0,-140 18,-50 110,-50 35,5 60,95 0,40 -60,95 -35,5 -110,-50 -18,-50"/>
    </g>
    <circle r="22" fill="#fff4c2" opacity="0.95"/>
  </g>
  <g fill="#ffffff" opacity="0.6">
    <circle cx="90" cy="140" r="3"/>
    <circle cx="380" cy="180" r="2.5"/>
    <circle cx="70" cy="520" r="2"/>
    <circle cx="420" cy="510" r="2.5"/>
    <circle cx="140" cy="610" r="2"/>
  </g>
  <rect x="40" y="40" width="400" height="640" rx="24" fill="none" stroke="#ffffff" stroke-opacity="0.25" stroke-width="2"/>
  <text x="240" y="640" fill="#ffffff" font-size="16" font-family="'Plus Jakarta Sans','Noto Sans KR',sans-serif" text-anchor="middle" opacity="0.7" letter-spacing="6">STAR 11</text>
</svg>
